<?xml version="1.0" encoding="UTF-8"?>
<svg version="1.1" xmlns="http://www.w3.org/2000/svg" width="512" height="512">
<path d="M0 0 C0.71673443 -0.00297112 1.43346885 -0.00594224 2.1719225 -0.0090034 C4.57485734 -0.01767757 6.97774227 -0.01919768 9.38069153 -0.02069092 C11.10424404 -0.02532072 12.82779553 -0.0303456 14.55134583 -0.03573608 C19.24065416 -0.04886339 23.92994815 -0.05530796 28.61927199 -0.05974674 C31.55895093 -0.06268241 34.49862601 -0.06678858 37.43830299 -0.07125092 C46.66315257 -0.08493874 55.88799325 -0.094594 65.11285228 -0.09845281 C75.70674357 -0.10290973 86.3005043 -0.1203411 96.89435595 -0.1494534 C105.11132249 -0.17123572 113.32825281 -0.18116613 121.54524785 -0.18249393 C126.43708876 -0.18353201 131.3288072 -0.189221 136.22061729 -0.20731354 C161.02764635 -0.29384287 185.69347149 -0.33114616 209.89167786 5.95294189 C210.9209137 6.21156006 211.95014954 6.47017822 213.01057434 6.7366333 C247.93627381 15.74004181 278.62505471 33.69494252 297.71882629 65.13262939 C311.89338238 89.39814755 317.38564206 118.25890664 316.89167786 146.14044189 C317.94355286 145.48044189 318.99542786 144.82044189 320.07917786 144.14044189 C326.39681967 140.99845307 333.48103318 141.04141987 340.25886536 142.73028564 C353.566487 148.34848389 360.54839693 168.25390723 365.77961731 180.67681885 C374.50242694 202.44308213 378.32154935 225.23026652 378.26667786 248.57794189 C378.26646637 249.41127045 378.26625488 250.244599 378.26603699 251.10317993 C378.23150703 264.77589846 377.26254288 277.83712519 373.89167786 291.14044189 C373.69912415 291.91033447 373.50657043 292.68022705 373.30818176 293.47344971 C372.03059132 298.43225104 370.52759035 303.2894064 368.89167786 308.14044189 C368.68349426 308.7793335 368.47531067 309.4182251 368.26081848 310.07647705 C362.40453771 327.85704644 353.36304221 344.38330986 341.89167786 359.14044189 C341.21492004 360.02731689 340.53816223 360.91419189 339.84089661 361.82794189 C327.45736904 377.71062254 312.78459507 391.1780169 295.89167786 402.14044189 C302.40639405 415.64656082 309.72598019 428.75261207 317.51667786 441.56231689 C321.50334188 449.03731194 322.1725414 456.79138109 320.20417786 465.01153564 C319.24952972 467.81581456 318.14920564 470.45877381 316.89167786 473.14044189 C316.51398254 473.94997314 316.13628723 474.75950439 315.74714661 475.59356689 C309.4478626 487.39282998 298.49377225 496.81677783 286.89167786 503.14044189 C286.09503723 503.59805908 285.29839661 504.05567627 284.47761536 504.52716064 C270.36365524 512.18180025 253.9521816 514.90696337 238.19636536 511.29278564 C228.68085329 507.70317432 222.16774796 501.80705904 217.21980286 492.99591064 C216.8815448 492.39381775 216.54328674 491.79172485 216.19477844 491.17138672 C212.17039594 483.94557248 208.37084395 476.59980639 204.59773254 469.24053955 C203.37035769 466.84889779 202.13515551 464.46140285 200.89949036 462.07403564 C200.11516975 460.54953594 199.33129783 459.0248053 198.54792786 457.49981689 C198.17929626 456.78847595 197.81066467 456.07713501 197.43086243 455.34423828 C194.89167786 450.36997418 194.89167786 450.36997418 194.89167786 448.14044189 C194.29355286 448.59419189 193.69542786 449.04794189 193.07917786 449.51544189 C183.1583853 454.57310084 170.97010872 453.99393621 160.43074036 451.23419189 C147.37801187 446.64558425 136.72413821 438.43998144 130.29011536 426.05841064 C129.08731025 423.44113361 127.95074184 420.81865177 126.89167786 418.14044189 C125.65933411 418.21262939 124.42699036 418.28481689 123.15730286 418.35919189 C110.63378133 419.07340812 98.50911403 419.49802302 86.01667786 418.12872314 C85.13753723 418.03417847 84.25839661 417.93963379 83.35261536 417.84222412 C81.1987525 417.61030343 79.04518436 417.37564851 76.89167786 417.14044189 C76.90833244 418.30982803 76.90833244 418.30982803 76.92532349 419.50283813 C77.02594168 426.88717197 77.1018519 434.27116859 77.15073872 441.65601158 C77.17671801 445.45174018 77.21189793 449.24689747 77.26887512 453.04229736 C77.32361794 456.7122615 77.3531859 460.38167978 77.36606407 464.05202103 C77.37522901 465.44496873 77.39312447 466.83789007 77.42032814 468.23060226 C77.61073226 478.39224012 76.30630812 485.70128423 69.82136536 493.69122314 C52.81368757 508.27385181 31.27570827 509.12220008 9.89167786 508.14044189 C-2.77188764 506.9584386 -15.99225529 502.22047687 -25.10832214 493.14044189 C-29.6769453 487.35737461 -32.24076119 482.8366968 -32.21270752 475.37153625 C-32.21004883 473.56600533 -32.21004883 473.56600533 -32.20733643 471.72399902 C-32.2004813 470.38763414 -32.19359866 469.0512694 -32.18669128 467.71490479 C-32.18317479 466.30850852 -32.18020782 464.90211079 -32.17774963 463.49571228 C-32.17207128 460.46244996 -32.16405521 457.42920541 -32.15472603 454.39595222 C-32.14152203 449.5804887 -32.14328886 444.76510499 -32.1489563 439.94963074 C-32.14987638 439.13538433 -32.15079646 438.32113792 -32.15174443 437.48221737 C-32.15471657 434.97310974 -32.15788164 432.4640024 -32.16105652 429.95489502 C-32.17380532 419.59057087 -32.17611581 409.2266225 -32.13249207 398.86236572 C-32.10077246 391.30106169 -32.09790432 383.74033347 -32.12725157 376.17901224 C-32.14167102 372.18624244 -32.14238987 368.19462306 -32.10785103 364.20195198 C-31.97004408 347.27378126 -32.25505419 332.35927772 -40.22719479 316.94687557 C-42.13688537 313.03174416 -43.07269106 308.81482484 -43.98332214 304.57794189 C-44.17692322 303.72208496 -44.37052429 302.86622803 -44.56999207 301.98443604 C-48.15719821 285.36783747 -53.03113523 257.98606806 -45.10832214 242.14044189 C-45.76832214 242.47044189 -46.42832214 242.80044189 -47.10832214 243.14044189 C-62.59353128 244.34227902 -75.86410247 240.35679841 -87.85832214 230.45294189 C-95.3757038 223.40708059 -102.00405325 213.37185762 -102.48332214 202.82794189 C-102.10832214 199.14044189 -102.10832214 199.14044189 -100.82316589 197.48419189 C-94.53129228 192.55388547 -83.58701504 193.60505448 -76.10832214 194.14044189 C-61.31448318 196.61251942 -50.25351927 204.46572215 -41.10832214 216.14044189 C-40.11832214 217.13044189 -40.11832214 217.13044189 -39.10832214 218.14044189 C-33.8063179 206.77935988 -32.32398827 197.1454852 -32.67017365 184.67038727 C-32.75235142 181.6888026 -32.79618743 178.70857052 -32.83128357 175.72607422 C-32.87058662 172.43545923 -32.91245157 169.1450497 -32.96509933 165.85461807 C-33.18209726 152.18095355 -33.10864793 138.50803762 -33.04068565 124.83348656 C-33.03019715 122.7185672 -33.02019121 120.60364605 -33.01031494 118.48872375 C-32.98351856 112.79134885 -32.95622944 107.09397924 -32.92450714 101.39662933 C-32.8841881 94.09882491 -32.85192921 86.80113997 -32.83732605 79.50323486 C-32.82428398 72.99175625 -32.79734704 66.48050893 -32.75370908 59.9691608 C-32.73133453 56.56509972 -32.71539763 53.16132047 -32.71643829 49.75717926 C-32.71406874 45.99948291 -32.68701929 42.24270564 -32.65422058 38.48516846 C-32.66176613 36.84588127 -32.66176613 36.84588127 -32.66946411 35.17347717 C-32.52598113 24.52400751 -29.75752699 15.83157518 -22.33097839 8.08575439 C-15.43498612 2.05024622 -9.02477679 0.02091028 0 0 Z M95.89167786 95.14044189 C95.56989563 96.34192871 95.2481134 97.54341553 94.9165802 98.78131104 C94.4788543 100.39197807 94.04085114 102.00256977 93.60261536 103.61309814 C93.28731873 104.79482605 93.28731873 104.79482605 92.96565247 106.00042725 C90.63734329 114.51207907 87.79041599 124.30780141 82.18533325 131.25552368 C75.32564223 140.12735581 75.98413551 148.68724534 76.20808411 159.37091064 C76.22116349 161.21605031 76.23111659 163.06121452 76.23809814 164.90638733 C76.26464002 169.72875816 76.33323921 174.54961884 76.411026 179.37139893 C76.49573068 185.17492724 76.52745316 190.97896467 76.56819916 196.7829361 C76.63574704 205.56981696 76.76998429 214.35339404 76.89167786 223.14044189 C100.32167786 223.14044189 123.75167786 223.14044189 147.89167786 223.14044189 C148.88167786 219.84044189 149.87167786 216.54044189 150.89167786 213.14044189 C156.66134821 199.41561998 166.40436406 191.484278 179.85066223 185.87530518 C184.71759651 184.12297597 189.74404561 183.49301945 194.89167786 183.14044189 C194.37601182 180.70436439 193.66093185 178.58589494 192.70027161 176.27716064 C186.67759553 161.12609804 186.6188114 144.32991336 192.50495911 129.11700439 C193.66190976 126.63363426 194.88238672 124.33623313 196.32917786 122.01544189 C198.23446348 119.30147444 198.23446348 119.30147444 197.23152161 116.73809814 C192.13096513 106.84926415 182.10510358 101.59300664 171.96199036 98.14434814 C161.95584456 95.24783226 152.3416654 95.00073548 141.98542786 95.04278564 C140.65164748 95.04465418 139.3178664 95.04607602 137.98408508 95.04707336 C134.49891719 95.0508643 131.01379196 95.06066475 127.52864075 95.07177734 C123.96215898 95.08206566 120.39567023 95.08658678 116.82917786 95.09161377 C109.84999383 95.10229059 102.8708379 95.11932514 95.89167786 95.14044189 Z M204.89167786 140.14044189 C203.74970775 144.24299085 203.70783616 148.22028415 203.70417786 152.45294189 C203.69193176 153.18706299 203.67968567 153.92118408 203.66706848 154.67755127 C203.65411844 159.54245193 204.34884099 163.52412764 205.89167786 168.14044189 C206.22167786 168.14044189 206.55167786 168.14044189 206.89167786 168.14044189 C208.16765525 159.79751278 209.73191357 147.40079546 204.89167786 140.14044189 Z M76.89167786 308.14044189 C76.89167786 338.50044189 76.89167786 368.86044189 76.89167786 400.14044189 C83.82713315 401.87430572 89.83987299 402.76200734 96.89167786 403.14044189 C98.05956848 403.20425049 98.05956848 403.20425049 99.25105286 403.26934814 C121.06402299 403.83347668 143.56587826 398.15946822 162.89167786 388.14044189 C161.36884635 383.07181641 159.21995714 378.54048751 156.82136536 373.84747314 C156.42144379 373.06079758 156.02152222 372.27412201 155.60948181 371.46360779 C154.76279268 369.80255727 153.91377584 368.14269145 153.06257629 366.48394775 C151.78211555 363.9830931 150.51631732 361.47518315 149.25105286 358.96661377 C137.97306269 336.81134621 124.12053413 319.73632956 99.88386536 311.10528564 C91.81235289 308.50259168 85.74698097 308.14044189 76.89167786 308.14044189 Z M165.82917786 404.14044189 C164.72896301 404.69731689 164.72896301 404.69731689 163.60652161 405.26544189 C162.75767395 405.69856689 162.75767395 405.69856689 161.89167786 406.14044189 C164.37647172 407.79697113 166.85530335 409.30116664 169.45417786 410.76544189 C170.23921692 411.21145752 171.02425598 411.65747314 171.83308411 412.11700439 C173.80699875 413.28883305 173.80699875 413.28883305 175.89167786 413.14044189 C174.6695074 409.09787807 173.2641349 405.6475523 170.89167786 402.14044189 C169.04736374 402.14044189 167.44152387 403.32147249 165.82917786 404.14044189 Z " fill="#3C3C3C" transform="translate(118.10832214355469,-0.14044189453125)"/>
<path d="M0 0 C8.16235898 7.40306978 8.18587132 18.16745834 8.81298828 28.50634766 C10.45439116 63.04179408 -2.1183726 93.75212226 -24.6875 119.5 C-45.8293483 142.63636229 -75.02195352 157.71479129 -106.453125 159.32421875 C-107.86851563 159.38029297 -107.86851563 159.38029297 -109.3125 159.4375 C-108.6525 160.4275 -107.9925 161.4175 -107.3125 162.4375 C-106.3140579 170.2784765 -109.33916965 176.71134493 -112.125 183.9375 C-117.3032992 197.77900417 -120.40381451 210.64786028 -121.3125 225.4375 C-120.74144531 225.05078125 -120.17039062 224.6640625 -119.58203125 224.265625 C-106.19843593 215.66948429 -91.91155802 213.31607871 -76.3125 216.125 C-70.51829508 217.70318811 -64.17237752 220.7238801 -60.3125 225.4375 C-59.92244985 231.80831916 -63.12425408 235.38241069 -67.1484375 240.08203125 C-76.62984777 250.40205001 -89.35344349 256.71337364 -103.44140625 257.56640625 C-108.97718402 257.71081784 -113.97077227 256.85185817 -119.3125 255.4375 C-115.5530267 288.19862446 -95.91273108 318.49258298 -70.62109375 338.91015625 C-48.28561002 356.31859869 -21.39527882 365.12176219 6.6875 366.4375 C7.45449219 366.47875 8.22148437 366.52 9.01171875 366.5625 C27.31225658 367.05962836 45.73364078 362.91111769 62.65625 356.13671875 C64.6875 355.4375 64.6875 355.4375 67.6875 355.4375 C69.71308881 358.78689881 69.90488987 361.30712551 69.8125 365.1875 C69.79445313 366.17234375 69.77640625 367.1571875 69.7578125 368.171875 C69.73460937 368.91953125 69.71140625 369.6671875 69.6875 370.4375 C70.23277344 370.58445312 70.77804687 370.73140625 71.33984375 370.8828125 C83.66094283 374.54754966 91.78125979 382.11718509 98.29296875 393.16015625 C101.37973574 399.16170027 103.81332438 404.60866801 103.6875 411.4375 C91.62219829 404.88678932 79.6484352 398.17644351 67.6875 391.4375 C66.69733887 390.88175293 65.70717773 390.32600586 64.68701172 389.75341797 C61.99496588 388.23957501 59.30902782 386.71550234 56.625 385.1875 C55.81611328 384.73415283 55.00722656 384.28080566 54.17382812 383.8137207 C52.31109835 382.74545094 50.49314572 381.59965577 48.6875 380.4375 C48.6875 379.7775 48.6875 379.1175 48.6875 378.4375 C46.87417846 378.74519707 45.06185655 379.05879064 43.25 379.375 C42.24066406 379.54902344 41.23132813 379.72304688 40.19140625 379.90234375 C37.7587562 380.18501097 37.7587562 380.18501097 36.6875 381.4375 C22.88137199 383.36557292 9.67657268 383.93303804 -4.1875 382.421875 C-5.06664062 382.3276123 -5.94578125 382.23334961 -6.8515625 382.13623047 C-9.00539413 381.90504474 -11.15897334 381.67150946 -13.3125 381.4375 C-13.29584541 382.60688614 -13.29584541 382.60688614 -13.27885437 383.79989624 C-13.17823618 391.18423008 -13.10232595 398.56822669 -13.05343914 405.95306969 C-13.02745984 409.74879829 -12.99227993 413.54395558 -12.93530273 417.33935547 C-12.88055992 421.0093196 -12.85099196 424.67873789 -12.83811378 428.34907913 C-12.82894884 429.74202684 -12.81105339 431.13494817 -12.78384972 432.52766037 C-12.5934456 442.68929823 -13.89786974 449.99834233 -20.3828125 457.98828125 C-37.39049028 472.57090992 -58.92846958 473.41925818 -80.3125 472.4375 C-92.9760655 471.25549671 -106.19643314 466.51753497 -115.3125 457.4375 C-119.88112316 451.65443271 -122.44493904 447.1337549 -122.41688538 439.66859436 C-122.41422668 437.86306343 -122.41422668 437.86306343 -122.41151428 436.02105713 C-122.40465916 434.68469225 -122.39777651 433.3483275 -122.39086914 432.01196289 C-122.38735265 430.60556663 -122.38438568 429.1991689 -122.38192749 427.79277039 C-122.37624914 424.75950806 -122.36823307 421.72626351 -122.35890388 418.69301033 C-122.34569989 413.8775468 -122.34746671 409.06216309 -122.35313416 404.24668884 C-122.35405424 403.43244243 -122.35497432 402.61819602 -122.35592228 401.77927548 C-122.35889442 399.27016785 -122.36205949 396.76106051 -122.36523438 394.25195312 C-122.37798318 383.88762898 -122.38029367 373.52368061 -122.33666992 363.15942383 C-122.30495032 355.5981198 -122.30208218 348.03739157 -122.33142942 340.47607034 C-122.34584887 336.48330054 -122.34656773 332.49168117 -122.31202888 328.49901009 C-122.17422194 311.57083936 -122.45923205 296.65633582 -130.43137264 281.24393368 C-132.34106323 277.32880227 -133.27686892 273.11188294 -134.1875 268.875 C-134.38110107 268.01914307 -134.57470215 267.16328613 -134.77416992 266.28149414 C-138.36137606 249.66489558 -143.23531308 222.28312617 -135.3125 206.4375 C-135.9725 206.7675 -136.6325 207.0975 -137.3125 207.4375 C-152.79770914 208.63933713 -166.06828033 204.65385651 -178.0625 194.75 C-185.57988166 187.7041387 -192.2082311 177.66891573 -192.6875 167.125 C-192.3125 163.4375 -192.3125 163.4375 -191.02734375 161.78125 C-184.73547014 156.85094357 -173.79119289 157.90211259 -166.3125 158.4375 C-151.51866104 160.90957753 -140.45769713 168.76278026 -131.3125 180.4375 C-130.3225 181.4275 -130.3225 181.4275 -129.3125 182.4375 C-122.90097204 169.26625248 -122.62653657 157.51812968 -123.0625 143.0625 C-123.15666908 139.01322935 -123.23301062 134.96392076 -123.296875 130.9140625 C-123.31301346 129.9355986 -123.32915192 128.9571347 -123.34577942 127.94902039 C-123.64644447 97.22433713 -114.7470012 66.84078722 -94.3125 43.4375 C-93.56742187 42.58285156 -92.82234375 41.72820312 -92.0546875 40.84765625 C-89.83722147 38.34830894 -87.58375151 35.88795117 -85.3125 33.4375 C-84.78527344 32.84453125 -84.25804688 32.2515625 -83.71484375 31.640625 C-73.6865493 20.868544 -60.6784543 13.27329331 -47.3125 7.4375 C-46.66700195 7.15535645 -46.02150391 6.87321289 -45.35644531 6.58251953 C-37.55517709 3.25452753 -29.6530563 0.83974833 -21.375 -1 C-20.22197388 -1.26441895 -20.22197388 -1.26441895 -19.0456543 -1.53417969 C-12.38117484 -2.89601089 -6.22638289 -2.93697306 0 0 Z " fill="#99CE4D" transform="translate(208.3125,35.5625)"/>
<path d="M0 0 C21.13442004 17.07736619 29.96847053 56.17983908 33.37280273 81.56201172 C34.09946988 88.982953 34.142512 96.40025243 34.125 103.8515625 C34.12478851 104.68489105 34.12457703 105.5182196 34.12435913 106.37680054 C34.08982917 120.04951906 33.12086503 133.11074579 29.75 146.4140625 C29.55744629 147.18395508 29.36489258 147.95384766 29.16650391 148.74707031 C27.88891346 153.70587164 26.38591249 158.563027 24.75 163.4140625 C24.54181641 164.0529541 24.33363281 164.6918457 24.11914062 165.35009766 C18.26285985 183.13066704 9.22136435 199.65693047 -2.25 214.4140625 C-2.92675781 215.3009375 -3.60351562 216.1878125 -4.30078125 217.1015625 C-16.53002583 232.78636517 -31.26599611 246.90367169 -48.25 257.4140625 C-48.91 257.4140625 -49.57 257.4140625 -50.25 257.4140625 C-52.50157551 253.37327205 -54.75128105 249.33144315 -57 245.2890625 C-57.33913422 244.67959778 -57.67826843 244.07013306 -58.02767944 243.44219971 C-62.58526334 235.24894438 -67.09813252 227.03359186 -71.5625 218.7890625 C-75.54254246 211.44302988 -79.6806643 204.21466569 -83.9543457 197.03613281 C-86.4372743 192.84849942 -88.73815845 188.63043922 -90.859375 184.24609375 C-96.26273426 173.24206154 -101.99770214 162.40739567 -108.55761719 152.04614258 C-111.25 147.72451358 -111.25 147.72451358 -111.25 144.4140625 C-110.074375 143.9190625 -108.89875 143.4240625 -107.6875 142.9140625 C-74.80622006 128.15103885 -51.83427241 104.03641514 -39 70.3515625 C-38.04533016 67.71785997 -37.13770362 65.07099923 -36.25 62.4140625 C-35.88132812 61.32996094 -35.51265625 60.24585938 -35.1328125 59.12890625 C-32.49785005 50.39676323 -31.27558993 41.49814538 -30.0625 32.4765625 C-29.9736554 31.81857666 -29.88481079 31.16059082 -29.79327393 30.48266602 C-28.87537485 23.58258242 -28.12068457 16.77595639 -28.02905273 9.81420898 C-27.92140518 2.310541 -27.92140518 2.310541 -25.875 -0.421875 C-18.90046709 -4.75189751 -6.8972478 -4.22456427 0 0 Z " fill="#1B8244" transform="translate(462.25,144.5859375)"/>
<path d="M0 0 C2.70161416 2.58290829 4.31799671 5.15084909 6.125 8.4375 C12.17503382 18.97421857 19.67912656 28.18279376 28 37 C28.67289063 37.73734375 29.34578125 38.4746875 30.0390625 39.234375 C49.77860689 60.08288256 79.66581785 75.00369223 108 79 C109.79548078 80.79548078 109.16508482 83.49670768 109.19287109 85.92163086 C109.20893402 87.19062729 109.22499695 88.45962372 109.24154663 89.76707458 C109.25304054 91.16632415 109.26364798 92.56558123 109.2734375 93.96484375 C109.27876118 94.66856173 109.28408485 95.3722797 109.28956985 96.09732246 C109.31634319 99.83057695 109.33569431 103.56379771 109.35009766 107.29711914 C109.36664943 111.1336991 109.41133256 114.96940379 109.4624691 118.80565548 C109.49634256 121.76989074 109.50769748 124.73392481 109.51332474 127.69833565 C109.51999477 129.11080075 109.53510485 130.52325465 109.55921555 131.93552971 C109.72348877 142.15052028 108.44988368 149.51740747 101.9296875 157.55078125 C84.92200972 172.13340992 63.38403042 172.98175818 42 172 C29.3364345 170.81799671 16.11606686 166.08003497 7 157 C2.39909012 151.17606344 -0.12674807 146.64752091 -0.12025452 139.13447571 C-0.12162918 137.91029938 -0.12300385 136.68612305 -0.12442017 135.42485046 C-0.12088104 134.06619238 -0.11724623 132.70753455 -0.11352539 131.34887695 C-0.11324335 129.91988121 -0.11340158 128.49088531 -0.1139679 127.06188965 C-0.11425523 123.17994704 -0.10836884 119.29803523 -0.10139394 115.41609979 C-0.09514975 111.36018037 -0.09455576 107.30426027 -0.09336853 103.24833679 C-0.09025837 95.56670657 -0.0820492 87.88509056 -0.07201904 80.20346659 C-0.06084815 71.45870442 -0.05534499 62.71394156 -0.05032361 53.96917403 C-0.03986634 35.97944129 -0.02227297 17.98972179 0 0 Z " fill="#343334" transform="translate(86,336)"/>
<path d="M0 0 C7.65092837 6.9392141 8.11410126 16.66636074 8.6875 26.4375 C8.87039687 32.10614529 8.81379369 37.76831668 8.6875 43.4375 C8.3575 42.4475 8.0275 41.4575 7.6875 40.4375 C-10.38053516 43.09901895 -26.25978919 48.23383009 -40.3125 60.4375 C-40.9725 60.4375 -41.6325 60.4375 -42.3125 60.4375 C-42.539375 60.994375 -42.76625 61.55125 -43 62.125 C-44.3125 64.4375 -44.3125 64.4375 -46.546875 66.625 C-49.669166 69.80021119 -52.24515087 73.16738958 -54.875 76.75 C-55.92563007 78.16677879 -56.97641618 79.58344188 -58.02734375 81 C-58.56472168 81.72703125 -59.10209961 82.4540625 -59.65576172 83.203125 C-62.90546801 87.58587064 -66.19605226 91.93809227 -69.47875977 96.29614258 C-69.95240967 96.92673584 -70.42605957 97.5573291 -70.9140625 98.20703125 C-71.32994629 98.75979736 -71.74583008 99.31256348 -72.17431641 99.88208008 C-73.26320839 101.37013903 -74.28968259 102.90327389 -75.3125 104.4375 C-74.3225 104.9325 -74.3225 104.9325 -73.3125 105.4375 C-73.9725 106.076875 -74.6325 106.71625 -75.3125 107.375 C-76.31738778 108.39102227 -77.31681467 109.41245785 -78.3125 110.4375 C-78.84746094 110.98792969 -79.38242188 111.53835937 -79.93359375 112.10546875 C-84.91543283 117.4729986 -89.31065994 123.26352954 -93.6875 129.125 C-94.30681396 129.94500488 -94.92612793 130.76500977 -95.56420898 131.60986328 C-98.67643907 135.82897857 -100.80656638 139.36649905 -102.3125 144.4375 C-104.25598501 146.16973664 -106.25970004 147.83631603 -108.3125 149.4375 C-110.52735904 152.02150222 -112.42449868 154.60549801 -114.3125 157.4375 C-115.6325 156.7775 -116.9525 156.1175 -118.3125 155.4375 C-118.4671875 156.55125 -118.4671875 156.55125 -118.625 157.6875 C-119.36023816 160.62845263 -120.44827795 162.09847609 -122.3125 164.4375 C-122.50779106 158.35877642 -122.68596287 152.27985325 -122.84960938 146.20019531 C-122.90730407 144.14049464 -122.96933706 142.08090999 -123.03613281 140.02148438 C-124.1708269 104.74281369 -118.22576576 70.8249572 -94.3125 43.4375 C-93.56742188 42.58285156 -92.82234375 41.72820312 -92.0546875 40.84765625 C-89.83722147 38.34830894 -87.58375151 35.88795117 -85.3125 33.4375 C-84.78527344 32.84453125 -84.25804687 32.2515625 -83.71484375 31.640625 C-73.6865493 20.868544 -60.6784543 13.27329331 -47.3125 7.4375 C-46.66700195 7.15535645 -46.02150391 6.87321289 -45.35644531 6.58251953 C-37.55517709 3.25452753 -29.6530563 0.83974833 -21.375 -1 C-20.60631592 -1.1762793 -19.83763184 -1.35255859 -19.0456543 -1.53417969 C-12.38117484 -2.89601089 -6.22638289 -2.93697306 0 0 Z " fill="#81B832" transform="translate(208.3125,35.5625)"/>
<path d="M0 0 C0.66 0 1.32 0 2 0 C2.81381795 1.93694678 3.62600916 3.87457711 4.4375 5.8125 C5.11619141 7.43091797 5.11619141 7.43091797 5.80859375 9.08203125 C7.79403544 13.94473599 8.99581278 18.4867725 7.51171875 23.72265625 C4.72202446 36.13786062 7.26580499 48.95298253 13.5625 59.8125 C18.00010203 66.00712212 24.52437093 69.54655512 31.4375 72.4375 C40.54256444 73.87514175 47.92673308 73.66383946 56 69 C57.0725 68.38125 58.145 67.7625 59.25 67.125 C65.35420492 62.40811438 68.39904792 57.55336766 69.40625 49.921875 C69.64497356 41.84506133 68.50019608 36.12308153 63 30 C58.33324463 26.16089569 53.31526241 25.37604542 47.3828125 25.59375 C44.91359367 26.01473157 43.41931577 26.67733539 41.3125 28 C37.45110694 30.33140713 35.43374684 30.66924481 31 30 C28.5625 28.4375 28.5625 28.4375 27 26 C26.375 22.5625 26.375 22.5625 27 19 C29.05874425 16.73010249 30.45828949 15.54204194 33 14 C33.59554687 13.60554687 34.19109375 13.21109375 34.8046875 12.8046875 C42.07528386 8.75918058 50.93260309 8.78759206 59 10 C68.50857722 12.82485758 75.19780939 18.75029148 80.3046875 27.14453125 C85.46790401 36.99986788 86.4813292 46.83036533 83.875 57.6875 C80.4027949 68.74711625 73.94449005 76.89765646 63.96484375 82.79296875 C53.04645372 88.48893183 39.12708232 90.42647955 26.93359375 87.50488281 C23.45359186 86.32825797 20.25487167 84.68148352 17 83 C16.34 83 15.68 83 15 83 C13.82638506 84.66138941 12.73574737 86.38179483 11.6875 88.125 C4.12183625 100.24866609 -5.03668144 107.5420637 -18.84301758 111.53271484 C-22.94387398 112.42111769 -27.13250462 112.22698557 -31.3125 112.25 C-32.23740234 112.270625 -33.16230469 112.29125 -34.11523438 112.3125 C-39.85578073 112.34513992 -43.95068774 111.80744487 -49 109 C-50.74552202 105.50895595 -50.55747254 101.79502483 -49.40722656 98.09130859 C-42.54236321 81.70300754 -32.12939525 72.81849711 -16 66 C-12.98549172 65.14611409 -10.38728565 64.89136345 -7.25 64.9375 C-6.45078125 64.94652344 -5.6515625 64.95554687 -4.828125 64.96484375 C-4.22484375 64.97644531 -3.6215625 64.98804688 -3 65 C-3.63228516 63.44539063 -3.63228516 63.44539063 -4.27734375 61.859375 C-4.83086716 60.48963909 -5.38424494 59.11984432 -5.9375 57.75 C-6.21529297 57.06808594 -6.49308594 56.38617188 -6.77929688 55.68359375 C-12.39625714 41.74270441 -11.91612033 25.00807901 -6.4375 11.0625 C-4.55891206 7.0602909 -2.667968 3.53325492 0 0 Z " fill="#9ACE45" transform="translate(316,118)"/>
<path d="M0 0 C1.59134766 0.00676758 1.59134766 0.00676758 3.21484375 0.01367188 C5.80995598 0.02536157 8.40494709 0.04174724 11 0.0625 C7.87050525 4.38307111 4.40585506 7.29779223 0.125 10.375 C-0.53918945 10.85356445 -1.20337891 11.33212891 -1.88769531 11.82519531 C-20.01750828 24.68901609 -43.25148191 35.68291413 -66 35.0625 C-69.3828125 34.07421875 -69.3828125 34.07421875 -72 33.0625 C-70.42385221 25.16462902 -63.60376789 20.67447066 -57.29272461 16.40844727 C-39.50301121 4.78940884 -21.12056804 -0.17181939 0 0 Z " fill="#AADC57" transform="translate(167,159.9375)"/>
<path d="M0 0 C-0.66 0 -1.32 0 -2 0 C-2 0.66 -2 1.32 -2 2 C-1.29093506 2.26772217 -0.58187012 2.53544434 0.14868164 2.8112793 C3.10112112 4.04215761 5.82413062 5.4682057 8.62109375 7.01953125 C9.71188232 7.6237793 10.8026709 8.22802734 11.92651367 8.85058594 C13.09711994 9.50406046 14.26744298 10.15804256 15.4375 10.8125 C16.02882721 11.14270142 16.62015442 11.47290283 17.22940063 11.81311035 C21.49337725 14.19620613 25.7483825 16.59493768 30 19 C31.12728516 19.63663574 32.25457031 20.27327148 33.41601562 20.92919922 C36.51509674 22.68835069 39.60324868 24.46500271 42.6875 26.25 C43.63101318 26.7860083 44.57452637 27.3220166 45.54663086 27.87426758 C46.40135986 28.37466553 47.25608887 28.87506348 48.13671875 29.390625 C48.88655029 29.82407227 49.63638184 30.25751953 50.40893555 30.70410156 C50.93398682 31.13174805 51.45903809 31.55939453 52 32 C52 32.99 52 33.98 52 35 C42.34803233 40.28560134 30.37460294 39.98549725 20 37 C5.56758997 32.33345803 -4.16804029 23.68389313 -11.41796875 10.40234375 C-14.19272925 4.57818775 -14.19272925 4.57818775 -13 1 C-11.07421875 0.234375 -11.07421875 0.234375 -8.6875 -0.25 C-7.90761719 -0.42015625 -7.12773437 -0.5903125 -6.32421875 -0.765625 C-3.92348133 -1.00771617 -2.28190412 -0.7310448 0 0 Z " fill="#1C8643" transform="translate(259,414)"/>
<path d="M0 0 C12.06962202 5.65232299 23.47282331 12.3946414 34.92724609 19.18798828 C37.92609895 20.95642034 40.9391095 22.69794985 43.95703125 24.43359375 C45.78410098 25.49697188 47.61093573 26.56075388 49.4375 27.625 C50.28973145 28.10928467 51.14196289 28.59356934 52.02001953 29.0925293 C52.79587402 29.54926025 53.57172852 30.00599121 54.37109375 30.4765625 C55.3909436 31.0655835 55.3909436 31.0655835 56.43139648 31.66650391 C58.41976708 33.35685102 58.72009043 34.43073125 59 37 C58.1875 40.1875 58.1875 40.1875 57 43 C50.23727045 46.38136478 39.86941396 44.00648749 32.91015625 42.03515625 C18.4176718 36.88011145 8.70875635 27.43782855 1.90234375 13.80078125 C-0.10669804 9.04449162 -0.27069265 5.05292948 0 0 Z " fill="#89BF33" transform="translate(16,199)"/>
<path d="M0 0 C11.18650722 9.8598497 11.18650722 9.8598497 13.29296875 15.8515625 C13.12109375 18.2890625 13.12109375 18.2890625 12.54296875 20.8515625 C12.3625 21.6971875 12.18203125 22.5428125 11.99609375 23.4140625 C11.32103104 25.75427989 10.40833464 27.69602393 9.29296875 29.8515625 C8.79700195 29.50689941 8.30103516 29.16223633 7.79003906 28.80712891 C1.08518096 24.23508587 -5.89625525 20.21778979 -12.95703125 16.2265625 C-14.18996939 15.52637743 -15.42271459 14.82585252 -16.65527344 14.125 C-19.13914475 12.7130512 -21.62389944 11.30267744 -24.109375 9.89355469 C-29.39955985 6.89292384 -34.67798162 3.87172582 -39.95703125 0.8515625 C-41.67051579 -0.12770413 -43.38405119 -1.10688178 -45.09765625 -2.0859375 C-46.30078125 -2.7734375 -47.50390625 -3.4609375 -48.70703125 -4.1484375 C-47.94140625 -6.0703125 -47.94140625 -6.0703125 -46.70703125 -8.1484375 C-31.10781785 -13.3481753 -12.87571259 -10.21881951 0 0 Z " fill="#AADD57" transform="translate(65.70703125,204.1484375)"/>
<path d="M0 0 C0.66 1.010625 1.32 2.02125 2 3.0625 C2.86939183 4.2969376 3.7445372 5.52734047 4.625 6.75390625 C5.07101562 7.37595947 5.51703125 7.9980127 5.9765625 8.63891602 C6.31429687 9.10869873 6.65203125 9.57848145 7 10.0625 C4.56105286 11.48521916 2.12209713 12.90792356 -0.31689453 14.33056641 C-2.45863746 15.57999858 -4.60023648 16.82967749 -6.74169922 18.07958984 C-12.40001625 21.38172054 -18.06057906 24.67978864 -23.7265625 27.96875 C-25.3362793 28.90436768 -25.3362793 28.90436768 -26.97851562 29.85888672 C-29.03622457 31.05474643 -31.09478448 32.2491434 -33.15429688 33.44189453 C-37.8726753 36.18620806 -42.48787057 38.99194547 -47 42.0625 C-47.99 42.5575 -47.99 42.5575 -49 43.0625 C-50.74552202 39.57145595 -50.55747254 35.85752483 -49.40722656 32.15380859 C-43.00912734 16.87980081 -33.32321852 7.08519735 -18.00292969 0.80322266 C-11.96606886 -1.4293268 -5.68198397 -3.66961465 0 0 Z " fill="#8BC033" transform="translate(316,183.9375)"/>
<path d="M0 0 C0 8.19974135 -5.28380711 13.06572067 -10.6640625 18.76171875 C-20.47576296 27.96925046 -34.39962352 32.39458258 -47.65234375 32.14453125 C-51.58621778 31.90234599 -55.36901691 31.62848812 -59 30 C-61.44833855 25.78885769 -61.03960822 21.76996087 -61 17 C-51.75355495 13.96520309 -42.49001521 11.31565334 -33.03100586 9.02783203 C-24.81536313 7.01304533 -16.71322239 4.64324138 -8.60546875 2.23486328 C-7.62835938 1.94466309 -6.65125 1.65446289 -5.64453125 1.35546875 C-4.77159424 1.09403076 -3.89865723 0.83259277 -2.99926758 0.56323242 C-1 0 -1 0 0 0 Z " fill="#89BE32" transform="translate(148,261)"/>
<path d="M0 0 C3.01962385 1.20784954 5.45378681 2.99940392 8 5 C6.54654921 14.85510539 -0.38913171 22.17681007 -8.015625 28.0546875 C-17.47471378 34.22042861 -26.34242011 36.17994344 -37.375 36.1875 C-38.30828125 36.19974609 -39.2415625 36.21199219 -40.203125 36.22460938 C-45.20939767 36.23524593 -49.30955979 35.98441701 -54 34 C-52.54952184 30.32291929 -50.8737958 29.00394313 -47.46875 27.07421875 C-46.52467285 26.53176514 -45.5805957 25.98931152 -44.60791016 25.43041992 C-43.5822998 24.85525635 -42.55668945 24.28009277 -41.5 23.6875 C-40.44731934 23.08591064 -39.39463867 22.48432129 -38.31005859 21.86450195 C-36.05763255 20.57751975 -33.80282462 19.29469906 -31.54589844 18.015625 C-27.91743024 15.95745498 -24.30497138 13.87219179 -20.6953125 11.78125 C-20.1011554 11.43721634 -19.50699829 11.09318268 -18.89483643 10.73872375 C-17.71657183 10.05645412 -16.53832853 9.37414771 -15.36010742 8.69180298 C-12.58804384 7.08729614 -9.81400186 5.48624618 -7.0390625 3.88671875 C-6.11303223 3.35264404 -5.18700195 2.81856934 -4.23291016 2.26831055 C-2.8409887 1.4776882 -1.43179021 0.71589511 0 0 Z " fill="#A9DB56" transform="translate(322,194)"/>
<path d="M0 0 C1.11858398 0.01123901 1.11858398 0.01123901 2.25976562 0.02270508 C11.25120409 0.19841114 19.22507958 1.63446894 26.5625 7.25 C27.81640625 9.4140625 27.81640625 9.4140625 28.5625 11.25 C18.80426539 14.22044706 9.02254568 16.94607115 -0.88793945 19.36279297 C-7.51212622 20.98753291 -14.07568092 22.78793347 -20.61499023 24.7265625 C-24.31466778 25.79332222 -27.57922564 26.51426537 -31.4375 26.25 C-32.98873491 21.59629527 -33.15786454 17.09997905 -32.4375 12.25 C-30.2788389 9.63688393 -29.28101334 8.76766883 -26.4375 7.25 C-25.6640625 6.81042969 -24.890625 6.37085938 -24.09375 5.91796875 C-16.20916586 1.69582262 -8.88029222 -0.11817495 0 0 Z " fill="#A9DC57" transform="translate(118.4375,250.75)"/>
<path d="M0 0 C0.57105469 0.144375 1.14210938 0.28875 1.73046875 0.4375 C9.28726168 2.16751301 14.80565021 2 23 2 C23 19.82 23 37.64 23 56 C10.90892892 40.88616116 1.04804492 19.56350519 0 0 Z " fill="#525251" transform="translate(88,290)"/>
<path d="M0 0 C-0.49230769 6.4 -0.49230769 6.4 -3.0625 9.4375 C-3.701875 9.953125 -4.34125 10.46875 -5 11 C-5.33 10.34 -5.66 9.68 -6 9 C-7.89600369 9.31146472 -9.79179587 9.62421717 -11.6875 9.9375 C-12.74324219 10.11152344 -13.79898438 10.28554688 -14.88671875 10.46484375 C-16.79789357 10.79336439 -18.70344122 11.16102871 -20.59375 11.59375 C-23.16801473 12.02836612 -25.23226193 11.90909914 -27.8125 11.5625 C-28.60269531 11.46066406 -29.39289063 11.35882813 -30.20703125 11.25390625 C-30.79871094 11.17011719 -31.39039062 11.08632813 -32 11 C-29.48865224 7.95921563 -27.10506322 7.21830385 -23.34375 6.2109375 C-22.23902344 5.90929687 -21.13429688 5.60765625 -19.99609375 5.296875 C-18.84238281 4.99265625 -17.68867188 4.6884375 -16.5 4.375 C-14.2186598 3.758146 -11.93740575 3.14097325 -9.65625 2.5234375 C-8.64369141 2.25450684 -7.63113281 1.98557617 -6.58789062 1.70849609 C-0.34734666 0 -0.34734666 0 0 0 Z " fill="#71AD35" transform="translate(148,261)"/>
<path d="M0 0 C1.03290841 1.93108963 2.05098672 3.870118 3.0625 5.8125 C3.63097656 6.89144531 4.19945312 7.97039062 4.78515625 9.08203125 C6 12 6 12 5 15 C3.2578125 16.203125 3.2578125 16.203125 1.125 17.25 C0.42632812 17.60578125 -0.27234375 17.9615625 -0.9921875 18.328125 C-3 19 -3 19 -6 18 C-5.97679687 17.26394531 -5.95359375 16.52789062 -5.9296875 15.76953125 C-5.91164063 14.79371094 -5.89359375 13.81789063 -5.875 12.8125 C-5.85179687 11.84957031 -5.82859375 10.88664062 -5.8046875 9.89453125 C-6.0086456 6.87187222 -6.73125368 4.73230015 -8 2 C-4.91190305 0.23537317 -3.76687864 0 0 0 Z " fill="#378837" transform="translate(283,388)"/>
<path d="M0 0 C0.33 0 0.66 0 1 0 C1.66 4.29 2.32 8.58 3 13 C7.89523474 11.77619131 9.81638458 9.7591843 13 6 C13.556875 5.05125 14.11375 4.1025 14.6875 3.125 C15.120625 2.42375 15.55375 1.7225 16 1 C19 1 19 1 21 2 C20.74802396 5.40167648 19.83931463 6.13926066 17.1875 8.4375 C16.64996094 8.85644531 16.11242187 9.27539062 15.55859375 9.70703125 C12.41636383 12.31374329 10.24709061 15.62936409 8 19 C6.68 18.34 5.36 17.68 4 17 C3.896875 17.7425 3.79375 18.485 3.6875 19.25 C3 22 3 22 0 26 C0 17.42 0 8.84 0 0 Z " fill="#469238" transform="translate(86,174)"/>
<path d="M0 0 C1.65 1.65 3.3 3.3 5 5 C1.14613806 7.25052225 -2.70814411 9.50032384 -6.5625 11.75 C-7.64853516 12.38421875 -8.73457031 13.0184375 -9.85351562 13.671875 C-11.96087835 14.9017037 -14.06971765 16.12900644 -16.18017578 17.35351562 C-17.88464607 18.34874919 -19.58296621 19.35477264 -21.26904297 20.38085938 C-22.81296164 21.31113342 -24.40159642 22.16681295 -26 23 C-26.66 22.67 -27.32 22.34 -28 22 C-24.34420463 18.98653129 -20.67437775 15.99077259 -17 13 C-16.16726563 12.31164062 -15.33453125 11.62328125 -14.4765625 10.9140625 C-10.34958384 7.57585792 -7.09898701 5.61675198 -2 4 C-0.57944932 1.99863756 -0.57944932 1.99863756 0 0 Z " fill="#77B136" transform="translate(318,189)"/>
<path d="M0 0 C4.89528263 1.74272062 9.26868015 4.2829381 13.75 6.875 C14.52988281 7.30941406 15.30976562 7.74382812 16.11328125 8.19140625 C16.85449219 8.62066406 17.59570312 9.04992187 18.359375 9.4921875 C19.37209473 10.07009033 19.37209473 10.07009033 20.40527344 10.65966797 C22.37052076 12.31141441 22.63102037 13.50376682 23 16 C19.85262818 15.30058404 16.97411124 14.23921302 14 13 C14 12.01 14 11.02 14 10 C13.46375 9.731875 12.9275 9.46375 12.375 9.1875 C9.58333333 7.79166667 6.79166667 6.39583333 4 5 C4 4.34 4 3.68 4 3 C2.68 2.67 1.36 2.34 0 2 C0 1.34 0 0.68 0 0 Z " fill="#60A338" transform="translate(52,220)"/>
<path d="M0 0 C-2.32889166 2.32889166 -3.68784885 2.3483859 -6.859375 2.71484375 C-10.19792512 3.15957762 -13.47275897 3.89715525 -16.765625 4.59765625 C-20.1507433 5.20721427 -23.56690525 5 -27 5 C-24.35099065 1.59553242 -20.87939384 0.74665995 -16.875 -0.3125 C-16.20718506 -0.49200195 -15.53937012 -0.67150391 -14.85131836 -0.85644531 C-9.19274523 -2.23294745 -5.42691645 -1.90418121 0 0 Z " fill="#7AB438" transform="translate(123,272)"/>
<path d="M0 0 C0.66 0 1.32 0 2 0 C3.00484204 1.95585325 4.00373805 3.91476237 5 5.875 C5.556875 6.96554687 6.11375 8.05609375 6.6875 9.1796875 C8 12 8 12 8 14 C6.02 14.33 4.04 14.66 2 15 C-0.41889075 10.06143138 -1.44999897 6.62498715 -1 1 C-0.67 0.67 -0.34 0.34 0 0 Z " fill="#16743D" transform="translate(281,388)"/>
<path d="M0 0 C-0.33 2.31 -0.66 4.62 -1 7 C-1.77085937 6.98839844 -2.54171875 6.97679687 -3.3359375 6.96484375 C-4.33882812 6.95582031 -5.34171875 6.94679688 -6.375 6.9375 C-7.87160156 6.92009766 -7.87160156 6.92009766 -9.3984375 6.90234375 C-11.98432453 6.81993398 -11.98432453 6.81993398 -14 8 C-15.99960012 8.039992 -18.00047242 8.04346799 -20 8 C-20 7.34 -20 6.68 -20 6 C-16.85489779 4.99769027 -13.70880088 3.99854009 -10.5625 3 C-9.66466797 2.71382813 -8.76683594 2.42765625 -7.84179688 2.1328125 C-6.98779297 1.86210937 -6.13378906 1.59140625 -5.25390625 1.3125 C-4.06776733 0.93544922 -4.06776733 0.93544922 -2.85766602 0.55078125 C-1 0 -1 0 0 0 Z " fill="#569B38" transform="translate(148,261)"/>
<path d="M0 0 C0.33 0 0.66 0 1 0 C3.49153487 9.46783251 4.81823548 16.58168581 1 26 C0.67 26 0.34 26 0 26 C0 17.42 0 8.84 0 0 Z " fill="#565755" transform="translate(86,174)"/>
<path d="M0 0 C0.66 0 1.32 0 2 0 C3.32 3.3 4.64 6.6 6 10 C3.36 9.67 0.72 9.34 -2 9 C-2.6875 7.3125 -2.6875 7.3125 -3 5 C-1.6875 2.25 -1.6875 2.25 0 0 Z " fill="#599D45" transform="translate(316,118)"/>
<path d="M0 0 C0.99 0.33 1.98 0.66 3 1 C0.50175511 3.81158409 -2.278476 5.44837831 -5.5625 7.25 C-7.01849609 8.06210938 -7.01849609 8.06210938 -8.50390625 8.890625 C-9.32761719 9.25671875 -10.15132813 9.6228125 -11 10 C-11.66 9.67 -12.32 9.34 -13 9 C-11.59351332 6.18702664 -9.73570226 5.54626649 -7 4 C-6.4121875 3.63132813 -5.824375 3.26265625 -5.21875 2.8828125 C-3.52547015 1.84244988 -1.76427696 0.91481028 0 0 Z " fill="#64A638" transform="translate(320,192)"/>
<path d="M0 0 C3 0 3 0 5 1 C4.01 2.32 3.02 3.64 2 5 C2.66 5.33 3.32 5.66 4 6 C1.6875 8.0625 1.6875 8.0625 -1 10 C-1.99 9.67 -2.98 9.34 -4 9 C-2.68 6.03 -1.36 3.06 0 0 Z " fill="#519632" transform="translate(131,135)"/>
<path d="M0 0 C0.66 0.33 1.32 0.66 2 1 C1.62669176 3.72574271 1.20805399 4.80822085 -0.84765625 6.703125 C-1.94400391 7.46882812 -1.94400391 7.46882812 -3.0625 8.25 C-3.79597656 8.77078125 -4.52945313 9.2915625 -5.28515625 9.828125 C-5.85105469 10.21484375 -6.41695313 10.6015625 -7 11 C-5.5140084 6.40693504 -3.14985318 3.56430755 0 0 Z " fill="#3E8D38" transform="translate(105,175)"/>
<path d="M0 0 C0.99 0.66 1.98 1.32 3 2 C4.32 1.34 5.64 0.68 7 0 C6.34 1.98 5.68 3.96 5 6 C2.525 5.01 2.525 5.01 0 4 C-0.33 5.65 -0.66 7.3 -1 9 C-2.25541557 5.23375329 -1.37061958 3.62811066 0 0 Z " fill="#529641" transform="translate(90,187)"/>
<path d="M0 0 C2 2 2 2 4 5 C6.05003955 6.19232613 6.05003955 6.19232613 8 7 C5.29120665 8.35439668 2.99066732 8.06501451 0 8 C0 5.36 0 2.72 0 0 Z " fill="#2C8238" transform="translate(280,396)"/>
<path d="M0 0 C0.66 0 1.32 0 2 0 C5 5.75 5 5.75 5 8 C3.68 8 2.36 8 1 8 C0.67 5.36 0.34 2.72 0 0 Z " fill="#0C6E3F" transform="translate(284,394)"/>
<path d="M0 0 C2.31 0.33 4.62 0.66 7 1 C6.34 3.97 5.68 6.94 5 10 C4.67 10 4.34 10 4 10 C3.54427083 7.98177083 3.08854167 5.96354167 2.6328125 3.9453125 C2.09525572 1.79280036 2.09525572 1.79280036 0 0 Z " fill="#569B40" transform="translate(97,194)"/>
<path d="M0 0 C2 3 2 3 2 7 C3.32 7.33 4.64 7.66 6 8 C4.1875 9.0625 4.1875 9.0625 2 10 C1.01 9.67 0.02 9.34 -1 9 C-0.67 6.03 -0.34 3.06 0 0 Z " fill="#479134" transform="translate(278,397)"/>
<path d="M0 0 C0.33 0.99 0.66 1.98 1 3 C3.97 3.495 3.97 3.495 7 4 C7.33 4.99 7.66 5.98 8 7 C5.36 6.67 2.72 6.34 0 6 C-1.125 2.25 -1.125 2.25 0 0 Z " fill="#71AF46" transform="translate(314,121)"/>
<path d="M0 0 C3.45925163 1.2491742 6.14693203 2.67527795 9 5 C7.68 5.33 6.36 5.66 5 6 C4.67 5.01 4.34 4.02 4 3 C1.98491642 2.26676204 1.98491642 2.26676204 0 2 C0 1.34 0 0.68 0 0 Z " fill="#71AF39" transform="translate(52,220)"/>
<path d="M0 0 C-2 2 -2 2 -3.9453125 2.1953125 C-5.96354167 2.13020833 -7.98177083 2.06510417 -10 2 C-6.80505194 -1.19494806 -4.22040044 -1.35655728 0 0 Z " fill="#64A537" transform="translate(127,269)"/>
<path d="M0 0 C3.77545388 1.09068668 6.47043472 1.9083091 9 5 C5.85262818 4.30058404 2.97411124 3.23921302 0 2 C0 1.34 0 0.68 0 0 Z " fill="#6BA936" transform="translate(66,231)"/>
</svg>
